# xmcd
#
# Track frame offsets: 
#        150
#        10697
#        23685
#        36640
#        51110
#        61897
#        75167
#        91265
#        104182
#        115742
#        128987
#        141577
#        154752
#        168300
#        180955
#        197492
#        211815
#        226987
#        240750
#        261442
#        277475
#        289002
#        307415
#
# Disc length: 4261 seconds
#
# Revision: 2
# Processed by: cddbd v1.5.2PL0 Copyright (c) Steve Scherf et al.
# Submitted via: ExactAudioCopyFreeDBPlugin 1.0
#
DISCID=4410a317
DTITLE=Anita Carter - Apalachian Angel - CD5
DYEAR=2004
DGENRE=Country
TTITLE0=Morning Sun
TTITLE1=Sound Of Different Drums
TTITLE2=Cry Softly
TTITLE3=Us
TTITLE4=Where Is The Start Of Lonely
TTITLE5=Tulsa Country
TTITLE6=Angel's Heaven
TTITLE7=Loving Him Was Easier
TTITLE8=I'd Rather Be Sorry
TTITLE9=Until It's Time For You To Go
TTITLE10=Loving Him Was Easier
TTITLE11=Summer Sand
TTITLE12=A Whole Lotta Lovin'
TTITLE13=Make Up The Difference
TTITLE14=Angel's Heaven
TTITLE15=When Love Dies
TTITLE16=He Taught Me All The Right Ways
TTITLE17=Once Around The Briar Patch
TTITLE18=How To Be A Woman
TTITLE19=Too Much Of A Man (To Be Tied Down)
TTITLE20=Walk On Out Of My Mind
TTITLE21=Love Is On The Way
TTITLE22=There's So Much Love Left Over
EXTD=
EXTT0=
EXTT1=
EXTT2=
EXTT3=
EXTT4=
EXTT5=
EXTT6=
EXTT7=
EXTT8=
EXTT9=
EXTT10=
EXTT11=
EXTT12=
EXTT13=
EXTT14=
EXTT15=
EXTT16=
EXTT17=
EXTT18=
EXTT19=
EXTT20=
EXTT21=
EXTT22=
PLAYORDER=
